<?xml version="1.0" encoding="utf-8"?>
<!-- Generator: Adobe Illustrator 24.1.2, SVG Export Plug-In . SVG Version: 6.00 Build 0)  -->
<svg version="1.1" id="Layer_1" xmlns="http://www.w3.org/2000/svg" xmlns:xlink="http://www.w3.org/1999/xlink" x="0px" y="0px"
	 viewBox="0 0 24 24" style="enable-background:new 0 0 24 24;" xml:space="preserve">
<style type="text/css">
	.st0{fill:#FC695A;}
</style>
<path class="st0" d="M22.94,6.84l-2.18-2.18l0.95-0.95c0.4-0.38,0.41-1.02,0.02-1.41c-0.38-0.4-1.02-0.41-1.41-0.02
	c-0.01,0.01-0.02,0.02-0.02,0.02l-0.95,0.95l-2.18-2.18c-1.43-1.36-3.68-1.36-5.1,0c-1.41,1.41-1.41,3.69,0,5.1c0,0,0,0,0,0
	l2.18,2.18l-5.89,5.89l-2.18-2.18c-1.43-1.36-3.68-1.36-5.11,0c-1.41,1.41-1.41,3.69,0,5.1c0,0,0,0,0,0l2.18,2.18l-0.95,0.95
	c-0.4,0.38-0.41,1.02-0.02,1.41s1.02,0.41,1.41,0.02c0.01-0.01,0.02-0.02,0.02-0.02l0.95-0.95l2.18,2.18c1.41,1.41,3.69,1.41,5.1,0
	c0,0,0,0,0,0l0,0c1.41-1.41,1.41-3.69,0-5.1c0,0,0,0,0,0l-2.18-2.18l5.9-5.89l2.18,2.18c1.41,1.41,3.69,1.41,5.1,0c0,0,0,0,0,0l0,0
	C24.36,10.53,24.36,8.25,22.94,6.84C22.95,6.84,22.95,6.84,22.94,6.84L22.94,6.84z M11,20.39c0,0.43-0.17,0.84-0.47,1.14
	c-0.64,0.61-1.64,0.61-2.28,0l-5.78-5.78c-0.63-0.63-0.63-1.65,0-2.28c0.63-0.63,1.65-0.63,2.28,0l5.78,5.78
	C10.83,19.55,11,19.96,11,20.39z M21.53,10.53c-0.64,0.61-1.64,0.61-2.28,0l-5.78-5.78c-0.63-0.63-0.63-1.65,0-2.28
	c0.63-0.63,1.65-0.63,2.28,0l0,0l5.78,5.78C22.16,8.88,22.16,9.9,21.53,10.53C21.53,10.53,21.53,10.53,21.53,10.53z"/>
</svg>
