<?xml version="1.0" encoding="utf-8"?>
<!-- Generator: Adobe Illustrator 24.1.2, SVG Export Plug-In . SVG Version: 6.00 Build 0)  -->
<svg version="1.1" id="Outline" xmlns="http://www.w3.org/2000/svg" xmlns:xlink="http://www.w3.org/1999/xlink" x="0px" y="0px"
	 viewBox="0 0 24 24" style="enable-background:new 0 0 24 24;" xml:space="preserve">
<style type="text/css">
	.st0{fill:#FC695A;}
</style>
<path class="st0" d="M19,2h-1V1c0-0.6-0.4-1-1-1s-1,0.4-1,1v1H8V1c0-0.6-0.4-1-1-1S6,0.4,6,1v1H5C2.2,2,0,4.2,0,7v12
	c0,2.8,2.2,5,5,5h14c2.8,0,5-2.2,5-5V7C24,4.2,21.8,2,19,2z M2,7c0-1.7,1.3-3,3-3h14c1.7,0,3,1.3,3,3v1H2V7z M19,22H5
	c-1.7,0-3-1.3-3-3v-9h20v9C22,20.7,20.7,22,19,22z"/>
<circle class="st0" cx="12" cy="15" r="1.5"/>
<circle class="st0" cx="7" cy="15" r="1.5"/>
<circle class="st0" cx="17" cy="15" r="1.5"/>
</svg>
