<?xml version="1.0" encoding="utf-8"?>
<!-- Generator: Adobe Illustrator 25.1.0, SVG Export Plug-In . SVG Version: 6.00 Build 0)  -->
<svg version="1.1" id="Outline" xmlns="http://www.w3.org/2000/svg" xmlns:xlink="http://www.w3.org/1999/xlink" x="0px" y="0px"
	 viewBox="0 0 24 24" style="enable-background:new 0 0 24 24;" xml:space="preserve">
<style type="text/css">
	.st0{fill:#FC695A;}
</style>
<path class="st0" d="M16,0h-0.1c-0.9,0-1.7,0.6-1.9,1.5c-0.3,1.1-1.4,1.7-2.5,1.4c-0.7-0.2-1.2-0.7-1.4-1.4C9.8,0.6,9.1,0,8.1,0H8
	C5.2,0,3,2.2,3,5v16c0,1.7,1.3,3,3,3h2.1c0.9,0,1.7-0.6,1.9-1.5c0.3-1.1,1.4-1.7,2.5-1.4c0.7,0.2,1.2,0.7,1.4,1.4
	c0.2,0.9,1,1.5,1.9,1.5H18c1.7,0,3-1.3,3-3V5C21,2.2,18.8,0,16,0z M18,22l-2.1-0.1c-0.6-2.1-2.8-3.4-4.9-2.8
	c-1.4,0.4-2.4,1.5-2.8,2.9H6c-0.6,0-1-0.4-1-1v-4h2c0.6,0,1-0.4,1-1c0-0.6-0.4-1-1-1H5V5c0-1.7,1.3-3,3-3l0.1,0.1
	C8.6,3.8,10.2,5,12,5c1.8,0,3.4-1.2,3.9-3H16c1.7,0,3,1.3,3,3v10h-2c-0.6,0-1,0.4-1,1c0,0.6,0.4,1,1,1h2v4C19,21.6,18.6,22,18,22z"
	/>
<path class="st0" d="M13,15h-2c-0.6,0-1,0.4-1,1c0,0.6,0.4,1,1,1h2c0.6,0,1-0.4,1-1C14,15.4,13.6,15,13,15z"/>
</svg>
