<?xml version="1.0" encoding="utf-8"?>
<!-- Generator: Adobe Illustrator 24.1.2, SVG Export Plug-In . SVG Version: 6.00 Build 0)  -->
<svg version="1.1" id="Outline" xmlns="http://www.w3.org/2000/svg" xmlns:xlink="http://www.w3.org/1999/xlink" x="0px" y="0px"
	 viewBox="0 0 24 24" style="enable-background:new 0 0 24 24;" xml:space="preserve">
<style type="text/css">
	.st0{fill:#FC695A;}
</style>
<path class="st0" d="M12,8c-2.21,0-4,1.79-4,4s1.79,4,4,4s4-1.79,4-4S14.21,8,12,8z M12,14c-1.1,0-2-0.9-2-2s0.9-2,2-2s2,0.9,2,2
	S13.1,14,12,14z"/>
<path class="st0" d="M21.29,13.9l-0.44-0.26c0.2-1.09,0.2-2.2,0-3.29l0.44-0.26c1.44-0.83,1.93-2.66,1.1-4.1
	c-0.83-1.44-2.66-1.93-4.1-1.1l-0.44,0.26C17.01,4.44,16.04,3.88,15,3.51V3c0-1.66-1.34-3-3-3S9,1.34,9,3v0.51
	C7.96,3.88,6.99,4.44,6.15,5.16L5.7,4.9C4.27,4.07,2.43,4.56,1.6,6s-0.34,3.27,1.1,4.1l0,0l0.44,0.26c-0.2,1.09-0.2,2.2,0,3.29
	L2.7,13.9c-1.44,0.83-1.93,2.66-1.1,4.1s2.66,1.93,4.1,1.1l0,0l0.45-0.26c0.84,0.72,1.81,1.27,2.85,1.64V21c0,1.66,1.34,3,3,3
	s3-1.34,3-3v-0.51c1.04-0.37,2.01-0.93,2.85-1.65l0.45,0.26c1.44,0.83,3.27,0.34,4.1-1.1C23.22,16.56,22.73,14.73,21.29,13.9
	L21.29,13.9L21.29,13.9z M18.75,10.12c0.34,1.23,0.34,2.52,0,3.75c-0.12,0.44,0.07,0.91,0.46,1.13l1.08,0.63
	c0.48,0.28,0.64,0.89,0.37,1.37c-0.28,0.48-0.89,0.64-1.37,0.37l0,0l-1.09-0.63c-0.4-0.23-0.9-0.16-1.22,0.17
	c-0.89,0.91-2.01,1.56-3.24,1.88C13.31,18.89,13,19.29,13,19.75V21c0,0.55-0.45,1-1,1s-1-0.45-1-1v-1.25c0-0.46-0.31-0.86-0.75-0.97
	c-1.23-0.32-2.35-0.97-3.24-1.88c-0.32-0.33-0.82-0.39-1.22-0.17l-1.08,0.63c-0.48,0.28-1.09,0.12-1.37-0.36
	c-0.28-0.48-0.12-1.09,0.36-1.37c0,0,0.01,0,0.01-0.01L4.79,15c0.39-0.23,0.59-0.69,0.46-1.13c-0.34-1.23-0.34-2.52,0-3.75
	c0.12-0.44-0.07-0.9-0.47-1.13L3.71,8.37C3.23,8.09,3.06,7.48,3.34,7s0.89-0.64,1.37-0.37l1.09,0.63C6.19,7.49,6.69,7.42,7.01,7.1
	c0.89-0.91,2.01-1.56,3.24-1.88C10.69,5.11,11,4.71,11,4.25V3c0-0.55,0.45-1,1-1s1,0.45,1,1v1.25c0,0.46,0.31,0.86,0.75,0.97
	c1.23,0.32,2.35,0.97,3.24,1.88c0.32,0.33,0.82,0.39,1.22,0.16l1.08-0.63c0.48-0.28,1.09-0.12,1.37,0.36
	c0.28,0.48,0.12,1.09-0.36,1.37c0,0-0.01,0-0.01,0.01L19.21,9C18.82,9.22,18.63,9.69,18.75,10.12L18.75,10.12z"/>
</svg>
