<?xml version="1.0" encoding="utf-8"?>
<!-- Generator: Adobe Illustrator 24.1.2, SVG Export Plug-In . SVG Version: 6.00 Build 0)  -->
<svg version="1.1" id="Outline" xmlns="http://www.w3.org/2000/svg" xmlns:xlink="http://www.w3.org/1999/xlink" x="0px" y="0px"
	 viewBox="0 0 24 24" style="enable-background:new 0 0 24 24;" xml:space="preserve">
<style type="text/css">
	.st0{fill:#FC695A;}
</style>
<path class="st0" d="M1,11h22c0.55,0,1,0.45,1,1l0,0c0,0.55-0.45,1-1,1H1c-0.55,0-1-0.45-1-1l0,0C0,11.45,0.45,11,1,11z"/>
<path class="st0" d="M1,4h22c0.55,0,1,0.45,1,1l0,0c0,0.55-0.45,1-1,1H1C0.45,6,0,5.55,0,5l0,0C0,4.45,0.45,4,1,4z"/>
<path class="st0" d="M1,18h22c0.55,0,1,0.45,1,1l0,0c0,0.55-0.45,1-1,1H1c-0.55,0-1-0.45-1-1l0,0C0,18.45,0.45,18,1,18z"/>
</svg>
