<?xml version="1.0" encoding="utf-8"?>
<!-- Generator: Adobe Illustrator 24.1.2, SVG Export Plug-In . SVG Version: 6.00 Build 0)  -->
<svg version="1.1" id="Outline" xmlns="http://www.w3.org/2000/svg" xmlns:xlink="http://www.w3.org/1999/xlink" x="0px" y="0px"
	 viewBox="0 0 24 24" style="enable-background:new 0 0 24 24;" xml:space="preserve">
<style type="text/css">
	.st0{fill:#FC695A;}
</style>
<path class="st0" d="M7,22H5c-1.66,0-3-1.34-3-3V5c0-1.66,1.34-3,3-3h2c0.55,0,1-0.45,1-1S7.55,0,7,0H5C2.24,0,0,2.24,0,5v14
	c0,2.76,2.24,5,5,5h2c0.55,0,1-0.45,1-1S7.55,22,7,22z"/>
<path class="st0" d="M18.54,18.71l4.59-4.59c1.17-1.17,1.17-3.07,0-4.24l-4.59-4.59c-0.4-0.38-1.03-0.37-1.41,0.02
	c-0.37,0.39-0.37,1,0,1.39L21.42,11H6c-0.55,0-1,0.45-1,1s0.45,1,1,1h15.42l-4.29,4.29c-0.4,0.38-0.41,1.02-0.02,1.41
	c0.38,0.4,1.02,0.41,1.41,0.02C18.52,18.72,18.53,18.72,18.54,18.71z"/>
</svg>
