<?xml version="1.0" encoding="utf-8"?>
<!-- Generator: Adobe Illustrator 25.1.0, SVG Export Plug-In . SVG Version: 6.00 Build 0)  -->
<svg version="1.1" id="Outline" xmlns="http://www.w3.org/2000/svg" xmlns:xlink="http://www.w3.org/1999/xlink" x="0px" y="0px"
	 viewBox="0 0 24 24" style="enable-background:new 0 0 24 24;" xml:space="preserve">
<style type="text/css">
	.st0{fill:#FC695A;}
</style>
<path class="st0" d="M19,0H5C2.2,0,0,2.2,0,5v14c0,2.8,2.2,5,5,5h14c2.8,0,5-2.2,5-5V5C24,2.2,21.8,0,19,0z M7,22v-1
	c0-2.8,2.2-5,5-5s5,2.2,5,5v1H7z M22,19c0,1.7-1.3,3-3,3v-1c0-3.9-3.1-7-7-7s-7,3.1-7,7v1c-1.7,0-3-1.3-3-3V5c0-1.7,1.3-3,3-3h14
	c1.7,0,3,1.3,3,3V19z"/>
<path class="st0" d="M12,4C9.8,4,8,5.8,8,8s1.8,4,4,4s4-1.8,4-4S14.2,4,12,4z M12,10c-1.1,0-2-0.9-2-2s0.9-2,2-2s2,0.9,2,2
	S13.1,10,12,10z"/>
</svg>
