<?xml version="1.0" encoding="utf-8"?>
<!-- Generator: Adobe Illustrator 24.1.2, SVG Export Plug-In . SVG Version: 6.00 Build 0)  -->
<svg version="1.1" id="Layer_1" xmlns="http://www.w3.org/2000/svg" xmlns:xlink="http://www.w3.org/1999/xlink" x="0px" y="0px"
	 viewBox="0 0 24 24" style="enable-background:new 0 0 24 24;" xml:space="preserve">
<style type="text/css">
	.st0{fill:#FC695A;}
</style>
<path class="st0" d="M23.9,11.44C23.05,4.86,17.03,0.23,10.45,1.08C4.47,1.86-0.01,6.96,0,13c-0.01,3.3,1.35,6.46,3.76,8.71
	c0.91,0.84,2.11,1.3,3.35,1.29h9.77c1.31,0,2.57-0.51,3.51-1.43C23.1,18.94,24.4,15.18,23.9,11.44z M18.99,20.14
	C18.43,20.69,17.67,21,16.88,21H7.11c-0.73,0.02-1.44-0.25-1.98-0.74C3.13,18.38,1.99,15.75,2,13c0-2.85,1.22-5.56,3.34-7.46
	C7.16,3.9,9.53,2.99,11.99,3c0.39,0,0.78,0.02,1.17,0.07c5.48,0.64,9.41,5.6,8.77,11.08C21.67,16.42,20.63,18.54,18.99,20.14
	L18.99,20.14z M7.81,17.29c0.39,0.39,0.4,1.02,0.02,1.42c-0.39,0.39-1.02,0.4-1.42,0.01C3.25,15.62,3.2,10.56,6.29,7.4
	C7.79,5.87,9.85,5,12,5c0.38,0,0.76,0.03,1.14,0.08c0.55,0.08,0.93,0.59,0.85,1.13c0,0,0,0,0,0c-0.07,0.54-0.57,0.92-1.11,0.85
	c-0.01,0-0.02,0-0.02,0c-3.28-0.47-6.32,1.81-6.79,5.09C5.8,14.04,6.44,15.95,7.81,17.29z M19.92,11.86C19.97,12.24,20,12.62,20,13
	c0.01,2.15-0.86,4.22-2.41,5.72c-0.4,0.39-1.03,0.38-1.42-0.02c-0.39-0.4-0.38-1.03,0.02-1.42c1.37-1.34,2.02-3.25,1.74-5.14
	c-0.08-0.55,0.3-1.05,0.85-1.13C19.33,10.93,19.84,11.31,19.92,11.86L19.92,11.86z M13.93,12.49c0.3,1.08-0.33,2.2-1.41,2.5
	c-1.08,0.3-2.2-0.33-2.5-1.41s0.33-2.2,1.41-2.5c0.36-0.1,0.73-0.1,1.09,0l3.78-3.78c0.38-0.4,1.02-0.41,1.41-0.02
	c0.4,0.38,0.41,1.02,0.02,1.41c-0.01,0.01-0.02,0.02-0.02,0.02L13.93,12.49z"/>
</svg>
