<?xml version="1.0" encoding="utf-8"?>
<!-- Generator: Adobe Illustrator 24.1.2, SVG Export Plug-In . SVG Version: 6.00 Build 0)  -->
<svg version="1.1" id="Layer_1" xmlns="http://www.w3.org/2000/svg" xmlns:xlink="http://www.w3.org/1999/xlink" x="0px" y="0px"
	 viewBox="0 0 24 24" style="enable-background:new 0 0 24 24;" xml:space="preserve">
<style type="text/css">
	.st0{fill:#FC695A;}
</style>
<path class="st0" d="M7.5,13C5,13,3,11,3,8.5S5,4,7.5,4S12,6,12,8.5C12,11,10,13,7.5,13z M7.5,6C6.1,6,5,7.1,5,8.5S6.1,11,7.5,11
	S10,9.9,10,8.5S8.9,6,7.5,6z M15,23v-0.5c0-4.1-3.4-7.5-7.5-7.5S0,18.4,0,22.5V23c0,0.6,0.4,1,1,1s1-0.4,1-1v-0.5
	c0-3,2.5-5.5,5.5-5.5s5.5,2.5,5.5,5.5V23c0,0.6,0.4,1,1,1S15,23.6,15,23z M24,18c0-3.9-3.1-7-7-7c-1.7,0-3.4,0.6-4.7,1.8
	c-0.4,0.4-0.5,1-0.1,1.4c0.4,0.4,1,0.5,1.4,0.1c0,0,0,0,0,0c2.1-1.8,5.2-1.7,7.1,0.4c0.8,0.9,1.3,2.1,1.3,3.3c0,0.6,0.4,1,1,1
	S24,18.6,24,18z M17.5,9C15,9,13,7,13,4.5S15,0,17.5,0S22,2,22,4.5C22,7,20,9,17.5,9z M17.5,2C16.1,2,15,3.1,15,4.5S16.1,7,17.5,7
	S20,5.9,20,4.5S18.9,2,17.5,2z"/>
</svg>
