<?xml version="1.0" encoding="utf-8"?>
<!-- Generator: Adobe Illustrator 24.1.2, SVG Export Plug-In . SVG Version: 6.00 Build 0)  -->
<svg version="1.1" id="Outline" xmlns="http://www.w3.org/2000/svg" xmlns:xlink="http://www.w3.org/1999/xlink" x="0px" y="0px"
	 viewBox="0 0 24 24" style="enable-background:new 0 0 24 24;" xml:space="preserve">
<style type="text/css">
	.st0{fill:#FC695A;}
</style>
<path class="st0" d="M17.5,1.92c-2.29,0.04-4.39,1.29-5.5,3.3c-1.11-2.01-3.21-3.26-5.5-3.3C2.76,2.08-0.14,5.23,0,8.97
	c0,4.55,4.79,9.51,8.8,12.88c1.85,1.55,4.55,1.55,6.4,0c4.01-3.37,8.8-8.33,8.8-12.88C24.14,5.23,21.24,2.08,17.5,1.92z
	 M13.91,20.32c-1.11,0.93-2.72,0.93-3.83,0C4.95,16.01,2,11.87,2,8.97C1.86,6.33,3.87,4.08,6.5,3.92c2.63,0.16,4.64,2.42,4.5,5.05
	c0,0.55,0.45,1,1,1s1-0.45,1-1c-0.14-2.63,1.87-4.89,4.5-5.05c2.63,0.16,4.64,2.42,4.5,5.05C22,11.87,19.05,16.01,13.91,20.32
	L13.91,20.32z"/>
<path class="st0" d="M19.72,15.63H4.28c-1.26,0-2.28-1.02-2.28-2.28V6.2c0-1.26,1.02-2.28,2.28-2.28h15.45
	c1.26,0,2.28,1.02,2.28,2.28v7.14C22.01,14.6,20.99,15.63,19.72,15.63z"/>
<path class="st0" d="M13.08,10.98H7.22c-1.26,0-2.28,1.02-2.28,2.28v2.73c0,1.26,1.02,2.28,2.28,2.28h5.86
	c1.26,0,2.28-1.02,2.28-2.28v-2.73C15.36,12,14.34,10.98,13.08,10.98z"/>
<path class="st0" d="M17.25,10.85H11.4c-1.26,0-2.28,1.02-2.28,2.28v2.73c0,1.26,1.02,2.28,2.28,2.28h5.86
	c1.26,0,2.28-1.02,2.28-2.28v-2.73C19.54,11.88,18.51,10.85,17.25,10.85z"/>
<path class="st0" d="M13.97,13.85H8.95c-1.26,0-2.28,1.02-2.28,2.28v2.73c0,1.26,1.02,2.28,2.28,2.28h5.02
	c1.26,0,2.28-1.02,2.28-2.28v-2.73C16.25,14.88,15.23,13.85,13.97,13.85z"/>
</svg>
