<?xml version="1.0" encoding="utf-8"?>
<!-- Generator: Adobe Illustrator 24.1.2, SVG Export Plug-In . SVG Version: 6.00 Build 0)  -->
<svg version="1.1" id="Outline" xmlns="http://www.w3.org/2000/svg" xmlns:xlink="http://www.w3.org/1999/xlink" x="0px" y="0px"
	 viewBox="0 0 24 24" style="enable-background:new 0 0 24 24;" xml:space="preserve">
<style type="text/css">
	.st0{fill:#FC695A;}
</style>
<path class="st0" d="M22.56,13.66l-1.9-6.84c-1.38-4.96-6.52-7.86-11.48-6.48c-3.32,0.92-5.85,3.6-6.6,6.96l-1.47,6.61
	c-0.6,2.7,1.1,5.37,3.8,5.97C5.26,19.96,5.62,20,5.99,20H7.1c0.55,2.71,3.19,4.45,5.89,3.91c1.97-0.4,3.51-1.94,3.91-3.91h0.84
	c2.76,0,5-2.24,5-5C22.74,14.55,22.68,14.1,22.56,13.66L22.56,13.66z M12,22c-1.27-0.01-2.39-0.81-2.82-2h5.63
	C14.39,21.19,13.27,21.99,12,22z M20.13,16.82C19.56,17.56,18.68,18,17.74,18H5.99c-1.66,0-3-1.34-3-3c0-0.22,0.02-0.44,0.07-0.65
	l1.47-6.62c0.88-3.95,4.79-6.44,8.74-5.56C15.9,2.76,18,4.76,18.73,7.36l1.9,6.84C20.88,15.1,20.7,16.07,20.13,16.82z"/>
</svg>
