<?xml version="1.0" encoding="utf-8"?>
<!-- Generator: Adobe Illustrator 24.1.2, SVG Export Plug-In . SVG Version: 6.00 Build 0)  -->
<svg version="1.1" id="Outline" xmlns="http://www.w3.org/2000/svg" xmlns:xlink="http://www.w3.org/1999/xlink" x="0px" y="0px"
	 viewBox="0 0 24 24" style="enable-background:new 0 0 24 24;" xml:space="preserve">
<style type="text/css">
	.st0{fill:#FC695A;}
</style>
<path class="st0" d="M23,22H3c-0.55,0-1-0.45-1-1V1c0-0.55-0.45-1-1-1S0,0.45,0,1v20c0,1.66,1.34,3,3,3h20c0.55,0,1-0.45,1-1
	S23.55,22,23,22z"/>
<path class="st0" d="M15,20c0.55,0,1-0.45,1-1v-7c0-0.55-0.45-1-1-1s-1,0.45-1,1v7C14,19.55,14.45,20,15,20z"/>
<path class="st0" d="M7,20c0.55,0,1-0.45,1-1v-7c0-0.55-0.45-1-1-1s-1,0.45-1,1v7C6,19.55,6.45,20,7,20z"/>
<path class="st0" d="M19,20c0.55,0,1-0.45,1-1V7c0-0.55-0.45-1-1-1s-1,0.45-1,1v12C18,19.55,18.45,20,19,20z"/>
<path class="st0" d="M11,20c0.55,0,1-0.45,1-1V7c0-0.55-0.45-1-1-1s-1,0.45-1,1v12C10,19.55,10.45,20,11,20z"/>
</svg>
