<?xml version="1.0" encoding="utf-8"?>
<!-- Generator: Adobe Illustrator 24.1.2, SVG Export Plug-In . SVG Version: 6.00 Build 0)  -->
<svg version="1.1" id="Layer_1" xmlns="http://www.w3.org/2000/svg" xmlns:xlink="http://www.w3.org/1999/xlink" x="0px" y="0px"
	 viewBox="0 0 24 24" style="enable-background:new 0 0 24 24;" xml:space="preserve">
<style type="text/css">
	.st0{fill:#FC695A;}
</style>
<path class="st0" d="M6,22.3c-0.6,0-1-0.4-1-1c0-0.4,0.2-0.7,0.5-0.9C9,18.3,9,13.7,9,11c0-1.7,1.3-3,3-3s3,1.3,3,3c0,0.6-0.4,1-1,1
	s-1-0.4-1-1s-0.4-1-1-1s-1,0.4-1,1c0,2.9,0,8.4-4.5,11.1C6.3,22.2,6.2,22.3,6,22.3z M10.9,23.7c2.3-2.3,3.6-5.5,4-9.6
	c0-0.6-0.4-1-0.9-1.1c0,0,0,0,0,0c-0.5-0.1-1,0.3-1.1,0.9c0,0,0,0,0,0c-0.3,3.7-1.4,6.4-3.4,8.4c-0.4,0.4-0.4,1,0,1.4
	C9.9,24.1,10.5,24.1,10.9,23.7L10.9,23.7z M16.1,23.5c0.6-1,1.1-2.1,1.5-3.2c0.2-0.5-0.1-1.1-0.6-1.3c-0.5-0.2-1.1,0.1-1.2,0.6
	c-0.4,1-0.8,1.9-1.3,2.8c-0.3,0.5-0.1,1.1,0.3,1.4C15.2,24.1,15.8,24,16.1,23.5C16.1,23.5,16.1,23.5,16.1,23.5z M18.5,17.2
	c0.4-2,0.5-4.1,0.5-6.2c0-3.9-3.1-7-7-7c-2,0-3.9,0.8-5.2,2.3c-0.4,0.4-0.4,1,0,1.4c0.4,0.4,1,0.4,1.4,0c0,0,0,0,0,0
	c1.8-2.1,5-2.2,7.1-0.4C16.4,8.2,17,9.6,17,11c0,1.9-0.1,3.9-0.5,5.8c-0.1,0.5,0.2,1.1,0.8,1.2c0.1,0,0.1,0,0.2,0
	C18,18,18.4,17.7,18.5,17.2z M7,11c0-0.3,0-0.6,0.1-0.8C7.2,9.6,6.9,9.1,6.3,9C5.8,8.9,5.2,9.2,5.1,9.7c0,0,0,0.1,0,0.1
	C5,10.2,5,10.6,5,11c0,4.6-1.3,7-4,7c-0.6,0-1,0.4-1,1s0.4,1,1,1C4.9,20,7,16.8,7,11z M20.7,23.4c1.6-3.9,2.4-8.2,2.3-12.4
	c0-1.7-0.4-3.3-1.1-4.8c-0.2-0.5-0.8-0.7-1.3-0.5c-0.5,0.2-0.7,0.8-0.5,1.3l0,0C20.7,8.3,21,9.6,21,11c0.1,4-0.6,7.9-2.1,11.6
	c-0.2,0.5,0,1.1,0.5,1.3c0,0,0,0,0,0c0.1,0.1,0.3,0.1,0.4,0.1C20.2,24,20.5,23.8,20.7,23.4z M3,14v-3c0-5,4-9,9-9
	c1.9,0,3.8,0.6,5.4,1.8c0.4,0.3,1.1,0.2,1.4-0.2c0.3-0.4,0.2-1.1-0.2-1.4C16.7,0.8,14.4,0,12,0C5.9,0,1,4.9,1,11v3c0,0.6,0.4,1,1,1
	S3,14.6,3,14z"/>
</svg>
