<?xml version="1.0" encoding="utf-8"?>
<!-- Generator: Adobe Illustrator 24.1.2, SVG Export Plug-In . SVG Version: 6.00 Build 0)  -->
<svg version="1.1" id="Camada_1" xmlns="http://www.w3.org/2000/svg" xmlns:xlink="http://www.w3.org/1999/xlink" x="0px" y="0px"
	 viewBox="0 0 500.3 124.36" style="enable-background:new 0 0 500.3 124.36;" xml:space="preserve">
<style type="text/css">
	.st0{fill:#ED6A5D;}
	.st1{fill:#4A4545;}
</style>
<path id="path2" class="st0" d="M59.1,25.7l13.5-7.4C68,6.8,56.5,0,41.1,0C15.7,0,0,15.7,0,38.6c0,25,20.8,38.8,40.6,38.8
	c18.2,0,30.1-8.5,35.2-15.6V34.9H36.7v12.4h24.5l-0.1,8.5c0,0-7.2,6.9-20.2,6.9c-14,0-22-9.5-22-24.5c0-15.1,8-24.6,21.8-24.6
	C48.9,13.6,55,18.5,59.1,25.7z M82.6,94.3V81.6c2.9,0.5,4.8,0.6,6.8,0.6c6,0,10.5-2.1,12.5-6.3l0.4-1.5L78.5,24.5h18.9l12,30.6
	c0.9,2.2,1.2,3.5,1.6,5.6h0.3c0.3-1.8,0.7-3.1,1.5-5.5l11.5-30.7H142l-22.6,52.3c-5.6,13-13.9,18.2-28.3,18.2
	C88.9,95,85.4,94.8,82.6,94.3z M164,24.5v10c3.4-7.7,9.6-11.5,18.5-11.5c8.8,0,14.7,3.8,17.7,11.6C204.3,26.9,211,23,219.8,23
	c12.5,0,19.5,7.8,19.5,21.9v29.6h-17.1V48c0-8.2-3.2-12.2-9.6-12.2c-6.7,0-10.7,4.6-10.7,12.5v26.2h-17.1V48
	c0-8.2-3.2-12.2-9.6-12.2c-6.7,0-10.7,4.7-10.7,12.8v25.9h-17.1v-50L164,24.5L164,24.5z M248.9,24.5h16.6v8.4
	c4.1-6.5,11.6-9.9,20.4-9.9c15,0,24.9,10.4,24.9,26.3c0,16.1-10.4,26.7-25.6,26.7c-8.4,0-15-3.2-19.2-8.5V94h-17.1L248.9,24.5
	L248.9,24.5z M293.1,49.3c0-9.4-5-14.8-13.6-14.8c-8.4,0-13.9,5.1-13.9,14v2.1c0,8.4,5.5,13.9,13.8,13.9
	C287.9,64.5,293.1,58.7,293.1,49.3z M317.4,60.8c0-4.6,1.9-8.4,5.4-10.9c3.5-2.4,8.5-3.9,17.4-4.8l18.6-1.7v-1.5
	c0-5.6-3.8-8.3-10.6-8.3c-6.9,0-11,2.7-11.7,7.7H319c1.3-11.4,12.4-18.3,29.3-18.3c19,0,27.7,6.9,27.7,21.4v15.5
	c0,6.4,0.4,11.1,1.2,14.6h-16.9c-0.4-2.4-0.7-5.5-0.7-8.5c-3.3,6.3-11.1,10-21.7,10C325.3,76,317.4,70.2,317.4,60.8L317.4,60.8z
	 M359.2,54.7v-3.2l-13.8,1.4c-7.6,0.9-10.5,2.9-10.5,6.8c0,3.7,3.6,5.9,9.5,5.9C353.2,65.6,359.2,61.3,359.2,54.7z M382,64.1
	l9.2-7.8c4.7,5.6,11.8,8.6,22.2,8.6c7,0,10.1-1.5,10.1-4.6c0-2.8-1.5-3.9-7.2-4.5L403,54.5c-12.2-1.5-18-6.6-18-15.4
	c0-10.2,9.4-16.1,26.2-16.1c12.1,0,21.9,3.4,27.5,9.5l-8,8.2c-5.1-4.6-11.4-6.8-20.4-6.8c-6.6,0-9.7,1.3-9.7,4.2
	c0,2.4,1.8,3.6,6.4,4.1l14.7,1.5c12.3,1.4,17.2,6.5,17.2,15.3c0,10.6-8.9,17-26.3,17C398.7,76,388.2,71.9,382,64.1L382,64.1z
	 M443.4,64.1l9.2-7.8c4.7,5.6,11.8,8.6,22.2,8.6c7,0,10.1-1.5,10.1-4.6c0-2.8-1.5-3.9-7.2-4.5l-13.3-1.3c-12.2-1.5-18-6.6-18-15.4
	c0-10.2,9.4-16.1,26.2-16.1c12.1,0,21.9,3.4,27.5,9.5l-8,8.2c-5.1-4.6-11.4-6.8-20.4-6.8c-6.6,0-9.7,1.3-9.7,4.2
	c0,2.4,1.8,3.6,6.4,4.1l14.7,1.5c12.3,1.4,17.2,6.5,17.2,15.3c0,10.6-8.9,17-26.3,17C460.1,76,449.6,71.9,443.4,64.1L443.4,64.1z"/>
<g>
	<path class="st1" d="M297.92,99.64h-4.38v14.76h-5.06V99.64h-2.79V97.2l2.79-1.36v-1.36c0-2.11,0.52-3.66,1.56-4.63
		c1.04-0.97,2.71-1.46,5-1.46c1.75,0,3.3,0.26,4.67,0.78l-1.29,3.72c-1.02-0.32-1.96-0.48-2.82-0.48c-0.72,0-1.24,0.21-1.56,0.64
		c-0.32,0.43-0.48,0.97-0.48,1.63v1.16h4.38V99.64z"/>
	<path class="st1" d="M317.69,105.09c0,3.02-0.8,5.38-2.39,7.09s-3.81,2.56-6.66,2.56c-1.78,0-3.35-0.39-4.71-1.17
		c-1.36-0.78-2.41-1.9-3.14-3.36s-1.1-3.17-1.1-5.11c0-3.03,0.79-5.39,2.37-7.07c1.58-1.68,3.81-2.52,6.67-2.52
		c1.78,0,3.35,0.39,4.71,1.16s2.41,1.89,3.14,3.34S317.69,103.14,317.69,105.09z M304.86,105.09c0,1.84,0.3,3.23,0.9,4.17
		s1.59,1.41,2.95,1.41c1.35,0,2.32-0.47,2.91-1.4c0.59-0.93,0.89-2.33,0.89-4.17c0-1.84-0.3-3.21-0.9-4.13s-1.58-1.38-2.94-1.38
		c-1.35,0-2.32,0.46-2.92,1.37C305.15,101.86,304.86,103.24,304.86,105.09z"/>
	<path class="st1" d="M332.23,95.49c0.69,0,1.26,0.05,1.71,0.15l-0.38,4.75c-0.41-0.11-0.91-0.17-1.49-0.17
		c-1.62,0-2.88,0.42-3.78,1.25s-1.35,1.99-1.35,3.49v9.45h-5.06V95.84h3.83l0.75,3.12h0.25c0.58-1.04,1.35-1.88,2.33-2.52
		C330.02,95.81,331.08,95.49,332.23,95.49z"/>
	<path class="st1" d="M356.34,114.73c-2.18,0-3.89-0.79-5.13-2.37h-0.27c0.18,1.55,0.27,2.45,0.27,2.69v7.52h-5.06V95.84h4.12
		l0.71,2.41h0.23c1.18-1.84,2.94-2.76,5.26-2.76c2.19,0,3.91,0.85,5.15,2.54c1.24,1.69,1.86,4.04,1.86,7.06
		c0,1.98-0.29,3.7-0.87,5.16s-1.41,2.57-2.48,3.34C359.05,114.35,357.79,114.73,356.34,114.73z M354.84,99.54
		c-1.25,0-2.16,0.38-2.74,1.15c-0.58,0.77-0.88,2.04-0.9,3.81v0.55c0,1.99,0.3,3.42,0.89,4.28s1.53,1.29,2.81,1.29
		c2.27,0,3.4-1.87,3.4-5.61c0-1.83-0.28-3.2-0.84-4.11C356.92,100,356.04,99.54,354.84,99.54z"/>
	<path class="st1" d="M379.45,114.4l-0.98-2.52h-0.13c-0.85,1.07-1.73,1.82-2.63,2.23c-0.9,0.42-2.08,0.62-3.53,0.62
		c-1.78,0-3.18-0.51-4.21-1.53s-1.54-2.47-1.54-4.35c0-1.97,0.69-3.42,2.07-4.36c1.38-0.94,3.46-1.45,6.23-1.55l3.22-0.1v-0.81
		c0-1.88-0.96-2.82-2.89-2.82c-1.48,0-3.23,0.45-5.23,1.34l-1.68-3.42c2.14-1.12,4.5-1.68,7.1-1.68c2.49,0,4.4,0.54,5.73,1.63
		s1.99,2.73,1.99,4.95v12.37H379.45z M377.95,105.8l-1.96,0.07c-1.47,0.04-2.57,0.31-3.29,0.8c-0.72,0.49-1.08,1.23-1.08,2.22
		c0,1.43,0.82,2.14,2.46,2.14c1.17,0,2.11-0.34,2.81-1.01c0.7-0.67,1.05-1.57,1.05-2.69V105.8z"/>
	<path class="st1" d="M398.56,95.49c0.69,0,1.26,0.05,1.71,0.15l-0.38,4.75c-0.41-0.11-0.91-0.17-1.49-0.17
		c-1.62,0-2.88,0.42-3.78,1.25c-0.9,0.83-1.35,1.99-1.35,3.49v9.45h-5.06V95.84h3.83l0.75,3.12h0.25c0.58-1.04,1.35-1.88,2.33-2.52
		C396.34,95.81,397.4,95.49,398.56,95.49z"/>
	<path class="st1" d="M411.45,110.7c0.89,0,1.95-0.19,3.19-0.58v3.77c-1.26,0.56-2.81,0.85-4.65,0.85c-2.03,0-3.5-0.51-4.42-1.54
		c-0.92-1.02-1.39-2.56-1.39-4.61v-8.95h-2.42V97.5l2.79-1.69l1.46-3.92h3.24v3.95h5.2v3.8h-5.2v8.95c0,0.72,0.2,1.25,0.61,1.59
		C410.26,110.53,410.79,110.7,411.45,110.7z"/>
	<path class="st1" d="M435.53,114.4h-5.06v-10.84c0-1.34-0.24-2.34-0.71-3.01c-0.48-0.67-1.23-1-2.27-1c-1.42,0-2.44,0.47-3.07,1.42
		c-0.63,0.95-0.95,2.52-0.95,4.71v8.73h-5.06V95.84h3.87l0.68,2.37h0.28c0.56-0.9,1.34-1.57,2.33-2.03
		c0.99-0.46,2.12-0.69,3.38-0.69c2.16,0,3.8,0.58,4.91,1.75c1.12,1.17,1.68,2.85,1.68,5.06V114.4z"/>
	<path class="st1" d="M449.14,114.73c-2.99,0-5.32-0.82-7.01-2.47s-2.52-3.98-2.52-7.01c0-3.11,0.78-5.51,2.33-7.21
		c1.56-1.7,3.71-2.55,6.45-2.55c2.62,0,4.67,0.75,6.13,2.24s2.19,3.56,2.19,6.19v2.46h-11.97c0.06,1.44,0.48,2.56,1.28,3.37
		s1.92,1.21,3.35,1.21c1.12,0,2.17-0.12,3.17-0.35s2.04-0.6,3.12-1.11v3.92c-0.89,0.44-1.83,0.77-2.84,0.99
		C451.82,114.63,450.59,114.73,449.14,114.73z M448.43,99.1c-1.07,0-1.92,0.34-2.52,1.02c-0.61,0.68-0.96,1.65-1.05,2.9h7.11
		c-0.02-1.25-0.35-2.22-0.98-2.9C450.35,99.44,449.5,99.1,448.43,99.1z"/>
	<path class="st1" d="M471.19,95.49c0.69,0,1.26,0.05,1.71,0.15l-0.38,4.75c-0.41-0.11-0.91-0.17-1.49-0.17
		c-1.62,0-2.88,0.42-3.78,1.25c-0.9,0.83-1.35,1.99-1.35,3.49v9.45h-5.06V95.84h3.83l0.75,3.12h0.25c0.58-1.04,1.35-1.88,2.33-2.52
		C468.97,95.81,470.04,95.49,471.19,95.49z"/>
	<path class="st1" d="M489.22,108.89c0,1.9-0.66,3.35-1.98,4.35c-1.32,1-3.3,1.49-5.93,1.49c-1.35,0-2.5-0.09-3.45-0.27
		c-0.95-0.18-1.84-0.45-2.67-0.81v-4.18c0.94,0.44,2,0.81,3.18,1.11c1.18,0.3,2.22,0.45,3.11,0.45c1.84,0,2.76-0.53,2.76-1.59
		c0-0.4-0.12-0.72-0.37-0.97c-0.24-0.25-0.66-0.53-1.26-0.85c-0.6-0.32-1.39-0.68-2.39-1.1c-1.43-0.6-2.48-1.15-3.15-1.66
		c-0.67-0.51-1.16-1.09-1.46-1.75c-0.3-0.66-0.46-1.47-0.46-2.43c0-1.65,0.64-2.92,1.92-3.83c1.28-0.9,3.09-1.35,5.44-1.35
		c2.24,0,4.41,0.49,6.52,1.46l-1.53,3.65c-0.93-0.4-1.8-0.72-2.61-0.98s-1.63-0.38-2.47-0.38c-1.49,0-2.24,0.4-2.24,1.21
		c0,0.45,0.24,0.85,0.72,1.18c0.48,0.33,1.54,0.82,3.16,1.48c1.45,0.59,2.51,1.13,3.19,1.64s1.17,1.1,1.49,1.76
		S489.22,107.97,489.22,108.89z"/>
</g>
</svg>
